<svg width="328" height="73" viewBox="0 0 328 73" fill="none" xmlns="http://www.w3.org/2000/svg">
<path d="M99.2756 66.0061V65.4174L99.7467 65.3703C100.296 65.3076 100.712 65.229 100.995 65.1348C101.293 65.025 101.498 64.8052 101.608 64.4755C101.717 64.1302 101.772 63.5728 101.772 62.8036V52.3481C101.772 51.5631 101.717 51.0058 101.608 50.6761C101.498 50.3465 101.293 50.1345 100.995 50.0403C100.712 49.9305 100.296 49.8441 99.7467 49.7813L99.2756 49.7342V49.1455L102.762 49.2161H102.785L106.272 49.1455V49.7342L105.8 49.7813C105.267 49.8441 104.85 49.9305 104.552 50.0403C104.254 50.1345 104.049 50.3465 103.94 50.6761C103.83 51.0058 103.775 51.5631 103.775 52.3481V56.8929H112.749V52.3481C112.749 51.5631 112.694 51.0058 112.584 50.6761C112.475 50.3465 112.27 50.1345 111.972 50.0403C111.689 49.9305 111.273 49.8441 110.724 49.7813L110.252 49.7342V49.1455L113.739 49.2161H113.762L117.248 49.1455V49.7342L116.777 49.7813C116.243 49.8441 115.827 49.9305 115.529 50.0403C115.231 50.1345 115.026 50.3465 114.916 50.6761C114.807 51.0058 114.752 51.5631 114.752 52.3481V62.8036C114.752 63.5728 114.807 64.1302 114.916 64.4755C115.026 64.8052 115.231 65.025 115.529 65.1348C115.827 65.229 116.243 65.3076 116.777 65.3703L117.248 65.4174V66.0061L113.762 65.9355H113.739L110.252 66.0061V65.4174L110.724 65.3703C111.273 65.3076 111.689 65.229 111.972 65.1348C112.27 65.025 112.475 64.8052 112.584 64.4755C112.694 64.1302 112.749 63.5728 112.749 62.8036V57.6465H103.775V62.8036C103.775 63.5728 103.83 64.1302 103.94 64.4755C104.049 64.8052 104.254 65.025 104.552 65.1348C104.85 65.229 105.267 65.3076 105.8 65.3703L106.272 65.4174V66.0061L102.785 65.9355H102.762L99.2756 66.0061ZM124.203 66.1945C123.198 66.1945 122.279 65.9512 121.447 65.4645C120.63 64.9779 119.979 64.3263 119.492 63.51C119.021 62.6779 118.785 61.7595 118.785 60.7548C118.785 59.7187 119.021 58.7847 119.492 57.9526C119.979 57.1205 120.63 56.4612 121.447 55.9745C122.279 55.4879 123.198 55.2445 124.203 55.2445C125.224 55.2445 126.142 55.4879 126.959 55.9745C127.776 56.4612 128.419 57.1205 128.891 57.9526C129.377 58.7847 129.621 59.7187 129.621 60.7548C129.621 61.7595 129.377 62.6779 128.891 63.51C128.419 64.3263 127.776 64.9779 126.959 65.4645C126.142 65.9512 125.224 66.1945 124.203 66.1945ZM124.203 65.6058C125.051 65.6058 125.734 65.3939 126.252 64.97C126.771 64.5305 127.147 63.9495 127.383 63.2274C127.619 62.4895 127.736 61.6653 127.736 60.7548C127.736 59.8129 127.619 58.9731 127.383 58.2352C127.147 57.4973 126.771 56.9165 126.252 56.4926C125.734 56.0531 125.051 55.8332 124.203 55.8332C123.355 55.8332 122.672 56.0531 122.154 56.4926C121.635 56.9165 121.259 57.4973 121.023 58.2352C120.787 58.9731 120.67 59.8129 120.67 60.7548C120.67 61.6653 120.787 62.4895 121.023 63.2274C121.259 63.9495 121.635 64.5305 122.154 64.97C122.672 65.3939 123.355 65.6058 124.203 65.6058ZM135.717 66.1945C134.948 66.1945 134.32 65.9669 133.833 65.5116C133.362 65.0407 133.126 64.2792 133.126 63.2274V56.2571H131.383V55.6684L132.019 55.6213C132.663 55.5742 133.15 55.3152 133.479 54.8442C133.825 54.3576 134.053 53.6824 134.162 52.819H134.775V55.6684H137.79V56.2571H134.775V63.3216C134.775 64.7031 135.262 65.3939 136.235 65.3939C136.644 65.3939 136.973 65.2605 137.225 64.9936C137.476 64.711 137.704 64.3656 137.908 63.9574L138.426 64.2165C138.332 64.4519 138.214 64.6718 138.073 64.8758C137.947 65.0642 137.821 65.229 137.696 65.3703C137.429 65.6686 137.123 65.8805 136.777 66.0061C136.447 66.1318 136.094 66.1945 135.717 66.1945ZM144.056 66.0061V65.4174L144.268 65.3939C144.818 65.3153 145.265 65.2055 145.611 65.0642C145.972 64.9229 146.278 64.6953 146.529 64.3813C146.796 64.0516 147.048 63.6042 147.283 63.039L152.984 49.2161H153.784L159.344 63.039C159.658 63.8083 159.995 64.3734 160.356 64.7345C160.718 65.0956 161.212 65.3076 161.84 65.3703L162.312 65.4174V66.0061L159.391 65.9355L155.622 66.0061V65.4174L156.093 65.3703C156.643 65.3076 157.035 65.1898 157.271 65.0171C157.506 64.8444 157.624 64.6011 157.624 64.2871C157.624 63.9731 157.514 63.5492 157.294 63.0155L156.069 59.9542H149.427L148.155 63.0155C148.045 63.2981 147.951 63.5571 147.872 63.7926C147.793 64.0124 147.754 64.2086 147.754 64.3813C147.754 64.6795 147.88 64.9073 148.131 65.0642C148.398 65.2212 148.83 65.3232 149.427 65.3703L149.898 65.4174V66.0061L146.906 65.9355L144.056 66.0061ZM149.733 59.2007H155.787L152.819 51.7358L149.733 59.2007ZM162.62 66.0061V65.4645L162.997 65.4174C163.453 65.3547 163.798 65.284 164.034 65.2055C164.285 65.1113 164.458 64.915 164.552 64.6168C164.646 64.3028 164.693 63.7926 164.693 63.0861V58.1174C164.693 57.3011 164.521 56.7831 164.175 56.5632C163.845 56.3278 163.382 56.21 162.785 56.21H162.62V55.6684C163.264 55.6684 163.885 55.6527 164.481 55.6213C165.078 55.5742 165.698 55.4957 166.342 55.3858V63.0861C166.342 63.7926 166.389 64.3028 166.484 64.6168C166.578 64.915 166.743 65.1113 166.978 65.2055C167.23 65.284 167.583 65.3547 168.038 65.4174L168.415 65.4645V66.0061L165.518 65.9355L162.62 66.0061ZM165.235 52.6307C164.827 52.6307 164.505 52.4894 164.269 52.2068C164.034 51.9242 163.916 51.5866 163.916 51.1942C163.916 50.786 164.034 50.4485 164.269 50.1816C164.505 49.899 164.827 49.7578 165.235 49.7578C165.691 49.7578 166.02 49.899 166.224 50.1816C166.444 50.4485 166.554 50.786 166.554 51.1942C166.554 51.5866 166.444 51.9242 166.224 52.2068C166.02 52.4894 165.691 52.6307 165.235 52.6307ZM169.314 66.0061V65.4645L169.691 65.4174C170.147 65.3547 170.492 65.284 170.728 65.2055C170.979 65.1113 171.152 64.915 171.246 64.6168C171.34 64.3028 171.387 63.7926 171.387 63.0861V58.1881C171.387 57.5758 171.301 57.1284 171.128 56.8458C170.971 56.5632 170.736 56.3905 170.422 56.3278C170.108 56.2492 169.738 56.21 169.314 56.21V55.6684C169.958 55.6684 170.579 55.6449 171.175 55.5978C171.772 55.5507 172.392 55.48 173.036 55.3858L172.777 58.0939H172.871C173.217 57.0421 173.641 56.3042 174.143 55.8803C174.646 55.4565 175.188 55.2445 175.769 55.2445C176.428 55.2445 176.868 55.4094 177.088 55.739C177.308 56.0531 177.418 56.3592 177.418 56.6574C177.418 57.0028 177.316 57.2853 177.111 57.5052C176.907 57.725 176.632 57.8348 176.287 57.8348C175.957 57.8348 175.706 57.7563 175.533 57.5994C175.36 57.4424 175.274 57.2618 175.274 57.0578C175.274 56.9008 175.29 56.7516 175.321 56.6103C175.368 56.469 175.392 56.3592 175.392 56.2807C175.392 56.1237 175.282 56.0452 175.062 56.0452C174.842 56.0452 174.607 56.1473 174.355 56.3513C174.12 56.5553 173.916 56.8379 173.743 57.199C173.602 57.4973 173.468 57.827 173.342 58.1881C173.217 58.5492 173.115 58.9416 173.036 59.3655V63.0861C173.036 63.7926 173.083 64.3028 173.178 64.6168C173.272 64.915 173.437 65.1113 173.672 65.2055C173.924 65.284 174.277 65.3547 174.732 65.4174L175.109 65.4645V66.0061L172.212 65.9355L169.314 66.0061ZM185.033 66.0061V65.4174L185.504 65.3703C186.053 65.3076 186.47 65.229 186.753 65.1348C187.051 65.025 187.254 64.8052 187.365 64.4755C187.475 64.1302 187.53 63.5728 187.53 62.8036V52.3481C187.53 51.5631 187.475 51.0058 187.365 50.6761C187.254 50.3465 187.051 50.1345 186.753 50.0403C186.47 49.9305 186.053 49.8441 185.504 49.7813L185.033 49.7342V49.1455L188.519 49.2161H191.393C191.817 49.2161 192.312 49.2318 192.877 49.2632C193.442 49.2947 194.008 49.3731 194.573 49.4987C195.154 49.6086 195.687 49.8049 196.175 50.0874C196.677 50.3544 197.077 50.7311 197.376 51.2178C197.69 51.6887 197.847 52.301 197.847 53.0545C197.847 53.7766 197.674 54.3968 197.329 54.9148C196.999 55.4329 196.575 55.8647 196.057 56.21C195.554 56.5397 195.028 56.7987 194.479 56.9871C195.233 57.0499 195.939 57.2226 196.599 57.5052C197.258 57.7878 197.792 58.2273 198.201 58.8239C198.625 59.4047 198.837 60.1897 198.837 61.1787C198.837 62.0892 198.655 62.8585 198.295 63.4865C197.949 64.0987 197.478 64.5853 196.882 64.9465C196.284 65.2918 195.625 65.5431 194.903 65.7C194.18 65.857 193.45 65.9355 192.712 65.9355H188.519L185.033 66.0061ZM192.1 49.8755H189.438V56.8223H192.571C193.544 56.8223 194.298 56.5083 194.832 55.8803C195.381 55.2524 195.657 54.3105 195.657 53.0545C195.657 52.1597 195.515 51.4847 195.233 51.0294C194.95 50.5741 194.541 50.2679 194.008 50.111C193.49 49.954 192.854 49.8755 192.1 49.8755ZM191.393 65.2761H192.712C193.497 65.2761 194.18 65.1663 194.762 64.9465C195.358 64.7266 195.813 64.3263 196.128 63.7455C196.458 63.1489 196.622 62.3012 196.622 61.2023C196.622 60.1347 196.441 59.3341 196.081 58.8003C195.719 58.2666 195.169 57.9134 194.432 57.7407C193.693 57.5679 192.759 57.4816 191.629 57.4816H189.438V62.8978C189.438 63.8397 189.595 64.4755 189.909 64.8052C190.239 65.1192 190.734 65.2761 191.393 65.2761ZM204.031 66.1945C203.277 66.1945 202.649 66.0061 202.146 65.6294C201.66 65.2369 201.416 64.6953 201.416 64.0045C201.416 63.3137 201.722 62.7015 202.335 62.1678C202.947 61.6183 203.662 61.1237 204.478 60.6842C205.091 60.3389 205.703 60.0405 206.316 59.7894C206.928 59.5382 207.454 59.3263 207.894 59.1536V58.4C207.894 57.5366 207.729 56.8929 207.399 56.469C207.086 56.0452 206.48 55.8332 205.585 55.8332C205.161 55.8332 204.746 55.8882 204.337 55.9981C203.929 56.1079 203.724 56.3121 203.724 56.6103C203.724 56.6731 203.733 56.7437 203.748 56.8223C203.78 56.9008 203.803 56.9792 203.819 57.0578C203.898 57.2618 203.936 57.4737 203.936 57.6936C203.936 57.9918 203.827 58.2273 203.607 58.4C203.403 58.557 203.152 58.6355 202.853 58.6355C202.57 58.6355 202.335 58.5334 202.146 58.3294C201.958 58.1095 201.864 57.8505 201.864 57.5523C201.864 56.9871 202.076 56.5397 202.5 56.21C202.94 55.8647 203.474 55.6213 204.101 55.48C204.73 55.3231 205.334 55.2445 205.915 55.2445C207.172 55.2445 208.09 55.535 208.671 56.1158C209.253 56.6966 209.543 57.6465 209.543 58.9652V63.2039C209.543 63.8947 209.59 64.4284 209.684 64.8052C209.795 65.1819 210.03 65.3703 210.391 65.3703C210.626 65.3703 210.831 65.284 211.003 65.1113C211.176 64.9386 211.294 64.7502 211.356 64.5461L211.78 64.711C211.656 65.1663 211.427 65.5273 211.097 65.7942C210.784 66.0611 210.344 66.1945 209.778 66.1945C209.088 66.1945 208.609 65.9983 208.341 65.6058C208.09 65.1976 207.949 64.6639 207.917 64.0045C207.478 64.711 206.921 65.2526 206.245 65.6294C205.57 66.0061 204.832 66.1945 204.031 66.1945ZM203.253 63.8868C203.253 64.3263 203.379 64.6795 203.63 64.9465C203.898 65.1976 204.283 65.3232 204.784 65.3232C205.24 65.3232 205.672 65.2134 206.08 64.9936C206.504 64.7737 206.874 64.499 207.187 64.1694C207.502 63.824 207.737 63.455 207.894 63.0626V59.6245C207.376 59.8444 206.842 60.1034 206.292 60.4016C205.758 60.6842 205.256 61.006 204.784 61.3671C204.33 61.7282 203.96 62.1207 203.677 62.5445C203.395 62.9527 203.253 63.4002 203.253 63.8868ZM212.14 66.0061V65.4645L212.517 65.4174C212.972 65.3547 213.317 65.284 213.553 65.2055C213.804 65.1113 213.977 64.915 214.071 64.6168C214.165 64.3028 214.213 63.7926 214.213 63.0861V51.5945C214.213 50.7782 214.039 50.2602 213.694 50.0403C213.365 49.8049 212.902 49.6871 212.305 49.6871H212.14V49.1455C212.784 49.1455 213.403 49.1298 214.001 49.0984C214.598 49.0513 215.217 48.9728 215.861 48.8629V63.0861C215.861 63.7926 215.909 64.3028 216.003 64.6168C216.097 64.915 216.262 65.1113 216.497 65.2055C216.748 65.284 217.102 65.3547 217.557 65.4174L217.934 65.4645V66.0061L215.037 65.9355L212.14 66.0061ZM218.649 66.0061V65.4645L219.026 65.4174C219.482 65.3547 219.827 65.284 220.063 65.2055C220.315 65.1113 220.487 64.915 220.581 64.6168C220.675 64.3028 220.722 63.7926 220.722 63.0861V51.5945C220.722 50.7782 220.55 50.2602 220.204 50.0403C219.874 49.8049 219.411 49.6871 218.814 49.6871H218.649V49.1455C219.293 49.1455 219.914 49.1298 220.51 49.0984C221.107 49.0513 221.728 48.9728 222.371 48.8629V63.0861C222.371 63.7926 222.418 64.3028 222.512 64.6168C222.607 64.915 222.771 65.1113 223.007 65.2055C223.259 65.284 223.612 65.3547 224.067 65.4174L224.444 65.4645V66.0061L221.547 65.9355L218.649 66.0061ZM231.284 66.1945C230.279 66.1945 229.36 65.9512 228.528 65.4645C227.711 64.9779 227.06 64.3263 226.573 63.51C226.102 62.6779 225.867 61.7595 225.867 60.7548C225.867 59.7187 226.102 58.7847 226.573 57.9526C227.06 57.1205 227.711 56.4612 228.528 55.9745C229.36 55.4879 230.279 55.2445 231.284 55.2445C232.304 55.2445 233.223 55.4879 234.04 55.9745C234.857 56.4612 235.501 57.1205 235.972 57.9526C236.458 58.7847 236.702 59.7187 236.702 60.7548C236.702 61.7595 236.458 62.6779 235.972 63.51C235.501 64.3263 234.857 64.9779 234.04 65.4645C233.223 65.9512 232.304 66.1945 231.284 66.1945ZM231.284 65.6058C232.132 65.6058 232.816 65.3939 233.334 64.97C233.852 64.5305 234.229 63.9495 234.464 63.2274C234.7 62.4895 234.818 61.6653 234.818 60.7548C234.818 59.8129 234.7 58.9731 234.464 58.2352C234.229 57.4973 233.852 56.9165 233.334 56.4926C232.816 56.0531 232.132 55.8332 231.284 55.8332C230.436 55.8332 229.753 56.0531 229.235 56.4926C228.717 56.9165 228.34 57.4973 228.104 58.2352C227.869 58.9731 227.751 59.8129 227.751 60.7548C227.751 61.6653 227.869 62.4895 228.104 63.2274C228.34 63.9495 228.717 64.5305 229.235 64.97C229.753 65.3939 230.436 65.6058 231.284 65.6058ZM244.235 66.1945C243.231 66.1945 242.312 65.9512 241.479 65.4645C240.663 64.9779 240.011 64.3263 239.524 63.51C239.053 62.6779 238.818 61.7595 238.818 60.7548C238.818 59.7187 239.053 58.7847 239.524 57.9526C240.011 57.1205 240.663 56.4612 241.479 55.9745C242.312 55.4879 243.231 55.2445 244.235 55.2445C245.256 55.2445 246.175 55.4879 246.991 55.9745C247.807 56.4612 248.452 57.1205 248.923 57.9526C249.409 58.7847 249.653 59.7187 249.653 60.7548C249.653 61.7595 249.409 62.6779 248.923 63.51C248.452 64.3263 247.807 64.9779 246.991 65.4645C246.175 65.9512 245.256 66.1945 244.235 66.1945ZM244.235 65.6058C245.083 65.6058 245.766 65.3939 246.285 64.97C246.803 64.5305 247.18 63.9495 247.415 63.2274C247.651 62.4895 247.769 61.6653 247.769 60.7548C247.769 59.8129 247.651 58.9731 247.415 58.2352C247.18 57.4973 246.803 56.9165 246.285 56.4926C245.766 56.0531 245.083 55.8332 244.235 55.8332C243.387 55.8332 242.704 56.0531 242.186 56.4926C241.668 56.9165 241.291 57.4973 241.055 58.2352C240.82 58.9731 240.702 59.8129 240.702 60.7548C240.702 61.6653 240.82 62.4895 241.055 63.2274C241.291 63.9495 241.668 64.5305 242.186 64.97C242.704 65.3939 243.387 65.6058 244.235 65.6058ZM251.368 66.0061V65.4645L251.745 65.4174C252.201 65.3547 252.546 65.284 252.781 65.2055C253.032 65.1113 253.205 64.915 253.299 64.6168C253.394 64.3028 253.441 63.7926 253.441 63.0861V58.1174C253.441 57.3011 253.268 56.7831 252.923 56.5632C252.593 56.3278 252.13 56.21 251.533 56.21H251.368V55.6684C252.012 55.6684 252.632 55.6527 253.229 55.6213C253.826 55.5742 254.445 55.4957 255.09 55.3858V57.2932C255.451 56.7595 255.961 56.2885 256.621 55.8803C257.28 55.4565 258.049 55.2445 258.929 55.2445C259.997 55.2445 260.837 55.5192 261.45 56.0687C262.077 56.6024 262.392 57.3718 262.392 58.3765V63.0861C262.392 63.7926 262.439 64.3028 262.533 64.6168C262.627 64.915 262.792 65.1113 263.028 65.2055C263.279 65.284 263.632 65.3547 264.088 65.4174L264.465 65.4645V66.0061L261.567 65.9355L258.67 66.0061V65.4645L259.047 65.4174C259.503 65.3547 259.848 65.284 260.083 65.2055C260.334 65.1113 260.507 64.915 260.602 64.6168C260.696 64.3028 260.743 63.7926 260.743 63.0861V58.3765C260.743 57.5915 260.539 56.995 260.131 56.5868C259.722 56.1629 259.149 55.951 258.411 55.951C257.846 55.951 257.336 56.0844 256.88 56.3513C256.424 56.6024 256.047 56.9165 255.749 57.2932C255.451 57.67 255.231 58.0311 255.09 58.3765V63.0861C255.09 63.7926 255.137 64.3028 255.231 64.6168C255.325 64.915 255.49 65.1113 255.726 65.2055C255.977 65.284 256.33 65.3547 256.786 65.4174L257.163 65.4645V66.0061L254.265 65.9355L251.368 66.0061ZM285.227 66.1945C284.363 66.1945 283.719 65.9041 283.295 65.3232C282.886 64.7266 282.62 63.9966 282.494 63.1332C282.415 62.5053 282.29 61.8773 282.117 61.2494C281.961 60.6214 281.702 60.0484 281.34 59.5303C280.995 58.9966 280.5 58.5727 279.856 58.2587C279.228 57.9447 278.404 57.7878 277.383 57.7878H276.37V62.8036C276.37 63.5728 276.425 64.1302 276.535 64.4755C276.644 64.8052 276.849 65.025 277.147 65.1348C277.445 65.229 277.862 65.3076 278.396 65.3703L278.867 65.4174V66.0061L275.38 65.9355H275.357L271.871 66.0061V65.4174L272.342 65.3703C272.892 65.3076 273.308 65.229 273.59 65.1348C273.888 65.025 274.093 64.8052 274.203 64.4755C274.312 64.1302 274.368 63.5728 274.368 62.8036V52.3481C274.368 51.5631 274.312 51.0058 274.203 50.6761C274.093 50.3465 273.888 50.1345 273.59 50.0403C273.308 49.9305 272.892 49.8441 272.342 49.7813L271.871 49.7342V49.1455L275.357 49.2161H278.655C279.723 49.2161 280.712 49.3418 281.623 49.5929C282.533 49.8284 283.263 50.2444 283.813 50.841C284.379 51.4376 284.661 52.2695 284.661 53.3371C284.661 54.279 284.449 55.0482 284.025 55.6448C283.617 56.2257 283.068 56.6731 282.376 56.9871C281.702 57.2854 280.963 57.4973 280.162 57.6229C281.325 57.7014 282.267 58.1018 282.989 58.8239C283.727 59.5303 284.198 60.5744 284.402 61.9558C284.544 62.835 284.717 63.5257 284.92 64.0281C285.141 64.5147 285.376 64.8602 285.627 65.0642C285.894 65.2526 286.161 65.3468 286.428 65.3468C286.601 65.3468 286.766 65.3153 286.923 65.2526C287.096 65.1898 287.244 65.127 287.37 65.0642L287.535 65.6529C287.284 65.7785 286.946 65.8963 286.522 66.0061C286.098 66.1318 285.666 66.1945 285.227 66.1945ZM278.702 49.8284H276.37V57.1519H278.348C279.856 57.1519 280.908 56.8458 281.505 56.2336C282.117 55.6213 282.424 54.7029 282.424 53.4784C282.424 52.3166 282.149 51.4218 281.599 50.7939C281.049 50.1502 280.083 49.8284 278.702 49.8284ZM287.966 66.0061V65.4645L288.343 65.4174C288.799 65.3547 289.144 65.284 289.38 65.2055C289.632 65.1113 289.803 64.915 289.898 64.6168C289.992 64.3028 290.039 63.7926 290.039 63.0861V58.1174C290.039 57.3011 289.867 56.7831 289.521 56.5632C289.191 56.3278 288.728 56.21 288.131 56.21H287.966V55.6684C288.61 55.6684 289.231 55.6527 289.827 55.6213C290.424 55.5742 291.045 55.4957 291.688 55.3858V63.0861C291.688 63.7926 291.735 64.3028 291.829 64.6168C291.924 64.915 292.088 65.1113 292.324 65.2055C292.576 65.284 292.929 65.3547 293.384 65.4174L293.761 65.4645V66.0061L290.863 65.9355L287.966 66.0061ZM290.581 52.6307C290.173 52.6307 289.851 52.4894 289.615 52.2068C289.38 51.9242 289.262 51.5866 289.262 51.1942C289.262 50.786 289.38 50.4485 289.615 50.1816C289.851 49.899 290.173 49.7578 290.581 49.7578C291.037 49.7578 291.366 49.899 291.57 50.1816C291.79 50.4485 291.9 50.786 291.9 51.1942C291.9 51.5866 291.79 51.9242 291.57 52.2068C291.366 52.4894 291.037 52.6307 290.581 52.6307ZM299.843 66.1945C298.948 66.1945 298.139 65.9512 297.417 65.4645C296.694 64.9779 296.121 64.3185 295.697 63.4865C295.273 62.6387 295.061 61.7047 295.061 60.6842C295.061 59.6637 295.273 58.7453 295.697 57.929C296.121 57.1127 296.702 56.4612 297.44 55.9745C298.177 55.4879 299.01 55.2445 299.937 55.2445C300.597 55.2445 301.201 55.3858 301.751 55.6684C302.3 55.9353 302.756 56.2415 303.117 56.5868V51.5945C303.117 50.7782 302.944 50.2602 302.599 50.0403C302.269 49.8049 301.805 49.6871 301.209 49.6871H301.044V49.1455C301.687 49.1455 302.308 49.1298 302.905 49.0984C303.501 49.0513 304.122 48.9728 304.766 48.8629V63.3687C304.766 64.2479 304.931 64.8052 305.261 65.0407C305.606 65.2761 306.092 65.3939 306.721 65.3939V65.9355H305.755C305.409 65.9355 305.072 65.9434 304.742 65.959C304.413 65.9905 304.043 66.0453 303.635 66.1239L303.329 64.4755C302.905 64.9779 302.394 65.3939 301.798 65.7236C301.216 66.0376 300.565 66.1945 299.843 66.1945ZM296.946 60.6842C296.946 61.5947 297.055 62.4111 297.275 63.1332C297.511 63.8553 297.856 64.4284 298.312 64.8523C298.783 65.2761 299.372 65.4881 300.078 65.4881C300.753 65.4881 301.334 65.3389 301.822 65.0407C302.323 64.7266 302.756 64.3499 303.117 63.9103V57.5523C302.85 57.1441 302.449 56.7752 301.916 56.4455C301.381 56.1158 300.792 55.951 300.149 55.951C299.426 55.951 298.83 56.1629 298.359 56.5868C297.888 56.995 297.534 57.5602 297.299 58.2823C297.063 58.9887 296.946 59.7894 296.946 60.6842ZM313.055 66.1945C312.019 66.1945 311.117 65.9747 310.346 65.5352C309.577 65.0799 308.973 64.4598 308.533 63.6749C308.109 62.8742 307.897 61.9637 307.897 60.9432C307.897 59.8443 308.132 58.871 308.603 58.0232C309.074 57.1598 309.703 56.4847 310.488 55.9981C311.289 55.4957 312.168 55.2445 313.126 55.2445C314.335 55.2445 315.278 55.6292 315.953 56.3984C316.644 57.1676 316.989 58.1802 316.989 59.4361C316.989 59.6245 316.982 59.7815 316.965 59.9071C316.95 60.0327 316.935 60.119 316.918 60.1661H309.805C309.789 60.386 309.781 60.6057 309.781 60.8255C309.781 61.6576 309.915 62.4347 310.181 63.1568C310.449 63.8632 310.849 64.4284 311.383 64.8523C311.933 65.2761 312.601 65.4881 313.385 65.4881C314.123 65.4881 314.775 65.284 315.34 64.8758C315.922 64.4519 316.369 63.8318 316.683 63.0155L317.248 63.2274C316.589 65.2055 315.192 66.1945 313.055 66.1945ZM313.126 55.8332C312.153 55.8332 311.391 56.1786 310.841 56.8694C310.307 57.5602 309.978 58.4785 309.852 59.6245H312.843C313.55 59.6245 314.085 59.546 314.445 59.389C314.822 59.2163 315.074 59.0123 315.199 58.7768C315.34 58.5256 315.411 58.2823 315.411 58.0468C315.411 57.356 315.175 56.8144 314.704 56.4219C314.233 56.0295 313.708 55.8332 313.126 55.8332ZM323.057 66.1945C322.46 66.1945 321.95 66.1239 321.525 65.9826C321.117 65.857 320.796 65.7392 320.56 65.6294C320.308 65.5037 320.151 65.441 320.089 65.441C320.025 65.441 319.971 65.4724 319.924 65.5352C319.892 65.5823 319.853 65.7157 319.806 65.9355H319.264L319.359 64.3813L319.429 62.3797H319.948L319.971 62.78C320.002 63.2195 320.143 63.6592 320.395 64.0987C320.661 64.5382 321.023 64.9073 321.479 65.2055C321.933 65.5037 322.46 65.6529 323.057 65.6529C323.7 65.6529 324.218 65.4881 324.612 65.1584C325.004 64.8287 325.2 64.3734 325.2 63.7926C325.2 63.2902 324.995 62.8663 324.588 62.521C324.195 62.1756 323.646 61.8695 322.939 61.6026L322.091 61.2729C321.274 60.9589 320.654 60.5665 320.23 60.0955C319.822 59.6245 319.617 59.0202 319.617 58.2823C319.617 57.6544 319.759 57.1205 320.042 56.681C320.34 56.2257 320.725 55.8724 321.196 55.6213C321.682 55.3702 322.201 55.2445 322.751 55.2445C323.143 55.2445 323.473 55.2916 323.74 55.3858C324.023 55.48 324.258 55.5742 324.447 55.6684C324.603 55.7469 324.736 55.7861 324.847 55.7861C325.004 55.7861 325.13 55.6213 325.224 55.2916L325.742 55.3152L325.648 56.8458V58.4942H325.106C324.995 57.7563 324.745 57.1205 324.352 56.5868C323.959 56.0373 323.394 55.7626 322.656 55.7626C322.138 55.7626 321.698 55.9274 321.337 56.2571C320.991 56.5868 320.819 57.0028 320.819 57.5052C320.819 57.9918 320.999 58.4 321.361 58.7297C321.738 59.0437 322.248 59.3263 322.892 59.5774L323.811 59.9307C324.768 60.2918 325.428 60.7313 325.789 61.2494C326.166 61.7518 326.355 62.3561 326.355 63.0626C326.355 63.8947 326.072 64.6247 325.507 65.2526C324.941 65.8805 324.124 66.1945 323.057 66.1945Z" fill="white"/>
<path d="M67.6501 25.6388V11.7822L63.4485 8.00048H75.3804V16.1919H83.6041V8.00048H95.252L91.3345 11.7972V25.6388L95.5361 29.4355H83.6041V19.3159H75.3804V29.4355H63.4485L67.6501 25.6388ZM103.79 10.9751C103.251 10.9751 102.743 10.8754 102.265 10.6761C101.796 10.4669 101.387 10.1878 101.039 9.83905C100.69 9.49027 100.411 9.0817 100.201 8.61334C100.002 8.13501 99.9021 7.62679 99.9021 7.08867C99.9021 6.55056 100.002 6.04732 100.201 5.57895C100.411 5.10062 100.69 4.68707 101.039 4.33829C101.387 3.97954 101.796 3.70052 102.265 3.50122C102.743 3.29195 103.251 3.18732 103.79 3.18732C104.328 3.18732 104.831 3.29195 105.3 3.50122C105.778 3.70052 106.192 3.97954 106.541 4.33829C106.9 4.68707 107.179 5.10062 107.378 5.57895C107.588 6.04732 107.692 6.55056 107.692 7.08867C107.692 7.62679 107.588 8.13501 107.378 8.61334C107.179 9.0817 106.9 9.49027 106.541 9.83905C106.192 10.1878 105.778 10.4669 105.3 10.6761C104.831 10.8754 104.328 10.9751 103.79 10.9751ZM100.635 25.7882V16.6851L96.7173 13.3368L107.618 12.8884V25.7882L111.67 29.4355H96.5828L100.635 25.7882ZM112.372 32.6044C112.372 32.1659 112.507 31.7674 112.776 31.4086C113.045 31.0499 113.409 30.7259 113.868 30.437C114.326 30.1479 114.859 29.8939 115.468 29.6746C116.075 29.4554 116.718 29.2711 117.396 29.1216C116.818 29.002 116.295 28.8575 115.826 28.6881C115.358 28.5188 114.954 28.3194 114.615 28.0902C114.286 27.861 114.027 27.6019 113.838 27.313C113.658 27.0239 113.568 26.7051 113.568 26.3563C113.568 25.9477 113.693 25.5839 113.942 25.2651C114.202 24.9362 114.53 24.6522 114.929 24.4131C115.338 24.1738 115.796 23.9796 116.305 23.8302C116.813 23.6806 117.322 23.5759 117.83 23.5163C117.292 23.2671 116.803 22.9731 116.365 22.6342C115.926 22.2955 115.547 21.9218 115.228 21.5132C114.909 21.0947 114.66 20.6412 114.481 20.153C114.311 19.6547 114.226 19.1166 114.226 18.5386C114.226 17.5022 114.505 16.5954 115.064 15.8182C115.622 15.0309 116.36 14.3782 117.277 13.86C118.194 13.3418 119.235 12.9532 120.402 12.694C121.568 12.435 122.764 12.3055 123.99 12.3055C125.117 12.3055 126.218 12.4151 127.295 12.6343C128.381 12.8535 129.368 13.1873 130.255 13.6358C130.365 13.0578 130.574 12.5595 130.883 12.141C131.192 11.7225 131.556 11.3787 131.975 11.1096C132.403 10.8405 132.867 10.6412 133.365 10.5117C133.874 10.3821 134.377 10.3174 134.876 10.3174C135.513 10.3174 136.087 10.3871 136.595 10.5266C137.103 10.6662 137.537 10.8804 137.896 11.1694C138.255 11.4484 138.529 11.8022 138.718 12.2307C138.918 12.6591 139.017 13.1574 139.017 13.7254C139.017 13.9348 138.997 14.1589 138.957 14.3981C138.918 14.6273 138.853 14.8714 138.763 15.1306L134.95 15.9975C134.98 15.7883 134.995 15.5889 134.995 15.3996C134.995 15.0607 134.95 14.7767 134.861 14.5476C134.771 14.3084 134.656 14.1141 134.517 13.9647C134.377 13.8151 134.218 13.7105 134.038 13.6508C133.859 13.5809 133.679 13.5461 133.5 13.5461C133.101 13.5461 132.777 13.6656 132.528 13.9049C132.279 14.134 132.099 14.423 131.99 14.7718C132.548 15.2601 132.982 15.8182 133.291 16.446C133.61 17.0638 133.769 17.7614 133.769 18.5386C133.769 19.575 133.485 20.4818 132.917 21.2591C132.358 22.0364 131.616 22.6891 130.689 23.2173C129.772 23.7355 128.725 24.124 127.549 24.3832C126.373 24.6422 125.171 24.7719 123.945 24.7719C122.38 24.7719 120.9 24.5676 119.505 24.159C119.395 24.2387 119.305 24.3234 119.235 24.4131C119.176 24.5027 119.146 24.6024 119.146 24.712C119.146 24.9612 119.26 25.1804 119.49 25.3697C119.729 25.5491 120.138 25.7035 120.716 25.8331C121.294 25.9527 122.076 26.0424 123.063 26.1021C124.05 26.1619 125.291 26.1918 126.786 26.1918C128.84 26.1918 130.559 26.2915 131.945 26.4908C133.34 26.6801 134.462 26.9741 135.309 27.3727C136.156 27.7613 136.759 28.2496 137.118 28.8376C137.487 29.4255 137.672 30.1131 137.672 30.9003C137.672 31.9367 137.363 32.8087 136.745 33.5162C136.136 34.2337 135.249 34.8167 134.083 35.2651C132.927 35.7135 131.511 36.0374 129.837 36.2367C128.172 36.436 126.283 36.5357 124.17 36.5357C122.375 36.5357 120.751 36.456 119.295 36.2964C117.85 36.137 116.614 35.8929 115.587 35.5641C114.56 35.2451 113.768 34.8365 113.21 34.3384C112.651 33.85 112.372 33.2721 112.372 32.6044ZM120.596 18.5386C120.596 19.1266 120.686 19.6348 120.865 20.0632C121.045 20.4918 121.289 20.8455 121.598 21.1246C121.907 21.4036 122.266 21.6079 122.674 21.7374C123.093 21.8669 123.532 21.9318 123.99 21.9318C124.449 21.9318 124.882 21.862 125.291 21.7225C125.71 21.5829 126.074 21.3737 126.383 21.0947C126.692 20.8156 126.936 20.4669 127.115 20.0483C127.295 19.6198 127.384 19.1166 127.384 18.5386C127.384 17.9407 127.3 17.4225 127.13 16.984C126.961 16.5456 126.722 16.1819 126.412 15.8928C126.113 15.6039 125.755 15.3896 125.336 15.2501C124.927 15.1107 124.479 15.0408 123.99 15.0408C123.532 15.0408 123.093 15.1107 122.674 15.2501C122.266 15.3896 121.907 15.6039 121.598 15.8928C121.289 16.1819 121.045 16.5456 120.865 16.984C120.686 17.4225 120.596 17.9407 120.596 18.5386ZM119.699 31.3338C119.699 31.6727 119.764 31.9916 119.893 32.2905C120.033 32.5894 120.282 32.8486 120.641 33.0678C121 33.2871 121.488 33.4564 122.106 33.576C122.734 33.7055 123.542 33.7703 124.529 33.7703C125.266 33.7703 126.014 33.7454 126.771 33.6956C127.539 33.6557 128.232 33.566 128.85 33.4265C129.468 33.297 129.971 33.1027 130.36 32.8435C130.749 32.5944 130.943 32.2606 130.943 31.842C130.943 31.4236 130.828 31.0697 130.599 30.7808C130.37 30.4918 129.956 30.2576 129.358 30.0782C128.77 29.9088 127.967 29.7842 126.951 29.7045C125.934 29.6248 124.638 29.585 123.063 29.585C122.684 29.585 122.306 29.58 121.927 29.5701C121.558 29.5601 121.194 29.5451 120.835 29.5252C120.486 29.7344 120.207 29.9936 119.998 30.3024C119.799 30.6114 119.699 30.9552 119.699 31.3338ZM142.8 25.7882V9.55504L138.883 6.20675L149.932 5.75832V15.9676C150.68 14.7917 151.637 13.8899 152.803 13.2621C153.979 12.6243 155.31 12.3055 156.795 12.3055C157.952 12.3055 158.979 12.4848 159.876 12.8435C160.783 13.1923 161.54 13.7205 162.148 14.428C162.766 15.1256 163.235 16.0024 163.554 17.0588C163.873 18.1052 164.032 19.3209 164.032 20.706V25.7882L168.084 29.4355H154.149L156.9 25.7882V21.0199C156.9 20.3822 156.84 19.7792 156.721 19.2113C156.601 18.6433 156.412 18.145 156.153 17.7165C155.903 17.2879 155.579 16.9492 155.181 16.7001C154.782 16.4509 154.303 16.3263 153.745 16.3263C153.187 16.3263 152.674 16.4509 152.205 16.7001C151.737 16.9392 151.333 17.293 150.994 17.7614C150.655 18.2197 150.391 18.7877 150.202 19.4653C150.022 20.1331 149.932 20.9004 149.932 21.7673V25.7882L152.684 29.4355H138.748L142.8 25.7882ZM181.616 11.7822L177.415 8.00048H193.144L189.346 11.7822V18.5685C189.346 20.0035 189.451 21.2192 189.661 22.2158C189.88 23.2024 190.204 24.0095 190.632 24.6373C191.061 25.2551 191.599 25.7035 192.247 25.9826C192.895 26.2516 193.653 26.3862 194.52 26.3862C195.049 26.3862 195.541 26.3463 196.001 26.2666C196.459 26.1769 196.878 26.0224 197.256 25.8032C197.645 25.5839 197.984 25.285 198.272 24.9063C198.572 24.5277 198.821 24.0494 199.02 23.4714C199.23 22.8934 199.389 22.2008 199.5 21.3936C199.609 20.5865 199.663 19.6448 199.663 18.5685V11.7972L196.405 8.00048H207.723L203.895 11.7972V19.4653C203.895 20.8705 203.781 22.1111 203.551 23.1874C203.322 24.2537 202.993 25.1804 202.564 25.9676C202.136 26.7449 201.613 27.3927 200.994 27.9109C200.376 28.429 199.679 28.8476 198.901 29.1665C198.124 29.4754 197.276 29.6946 196.359 29.8242C195.442 29.9537 194.465 30.0184 193.428 30.0184C191.255 30.0184 189.417 29.7992 187.912 29.3607C186.406 28.9223 185.185 28.2645 184.247 27.3876C183.321 26.5008 182.648 25.3997 182.229 24.0842C181.82 22.7588 181.616 21.2192 181.616 19.4653V11.7822ZM212.239 16.984L208.186 13.3368L219.371 12.8884V15.6537C220.078 14.5177 221.006 13.6756 222.152 13.1275C223.308 12.5794 224.613 12.3055 226.069 12.3055C227.614 12.3055 228.975 12.5446 230.151 13.0229C231.337 13.4912 232.329 14.139 233.126 14.9661C233.924 15.7832 234.527 16.7398 234.936 17.836C235.344 18.9322 235.549 20.1081 235.549 21.3637C235.549 22.4798 235.37 23.561 235.011 24.6074C234.652 25.6437 234.093 26.5655 233.336 27.3727C232.579 28.1699 231.607 28.8126 230.42 29.3009C229.244 29.7793 227.829 30.0184 226.174 30.0184C224.658 30.0184 223.323 29.7594 222.167 29.2412C221.011 28.713 220.078 27.8959 219.371 26.7897V32.3055L224.919 35.9527H208.186L212.239 32.3055V16.984ZM219.371 21.1694C219.371 22.0663 219.49 22.8286 219.729 23.4564C219.979 24.0842 220.298 24.5975 220.687 24.996C221.085 25.3847 221.529 25.6687 222.018 25.848C222.516 26.0275 223.019 26.1171 223.528 26.1171C224.135 26.1171 224.694 26.0125 225.202 25.8032C225.71 25.5939 226.149 25.285 226.518 24.8764C226.887 24.458 227.17 23.9398 227.371 23.3219C227.579 22.7041 227.684 21.9865 227.684 21.1694C227.684 20.3523 227.579 19.6298 227.371 19.002C227.17 18.3642 226.887 17.8311 226.518 17.4026C226.149 16.9641 225.71 16.6353 225.202 16.4161C224.694 16.1968 224.135 16.0872 223.528 16.0872C222.989 16.0872 222.471 16.1819 221.973 16.3712C221.474 16.5505 221.031 16.8445 220.642 17.2531C220.263 17.6518 219.954 18.1749 219.715 18.8226C219.485 19.4604 219.371 20.2427 219.371 21.1694Z" fill="white"/>
<path d="M32.85 64.4833H20.6833C19.345 64.4833 18.25 65.5783 18.25 66.9166V70.5666C18.25 71.905 19.345 73 20.6833 73H32.85C34.1883 73 35.2833 71.905 35.2833 70.5666V66.9166C35.2833 65.5783 34.1883 64.4833 32.85 64.4833Z" fill="white"/>
<path d="M26.7667 0C11.9233 0 0 11.4367 0 25.55C0 34.675 4.98834 42.705 12.6533 47.2067C15.5733 48.91 17.52 51.83 18.1283 55.115C18.3717 56.21 19.345 57.0629 20.5617 57.0629H33.215C34.4317 57.0629 35.405 56.2112 35.6483 55.115C36.2567 51.83 38.2046 48.91 41.1233 47.2067C48.545 42.705 53.5333 34.675 53.5333 25.55C53.5333 11.4367 41.61 0 26.7667 0ZM18.4933 11.4367C16.06 16.06 14.7217 21.535 14.6 25.915C14.6 30.4167 15.4517 34.7967 17.0333 39.055C17.52 40.15 16.425 41.1233 15.33 40.6379C4.13667 34.9183 4.86667 13.87 17.0333 9.73333C18.0067 9.36833 18.98 10.4633 18.4933 11.4367ZM27.8617 40.3933C27.4955 41.3667 26.0367 41.3667 25.6717 40.3933C23.725 35.6483 23.2383 30.0517 23.1167 24.9417C23.2383 19.8317 23.725 14.235 25.6717 9.49C26.0367 8.51667 27.4967 8.51667 27.8617 9.49C29.8083 14.235 30.295 19.8317 30.4167 24.9417C30.295 30.0517 29.8083 35.6483 27.8617 40.3933ZM37.7167 40.6367C36.7433 41.1233 35.6483 40.15 36.0133 39.055C37.7167 34.675 38.4467 29.8083 38.5695 25.1862C38.4467 21.2929 37.1096 15.9395 34.6762 11.4379C34.1895 10.4645 35.1629 9.36955 36.1362 9.73455C48.3017 13.87 49.0317 34.9183 37.7167 40.6367Z" fill="white"/>
</svg>
