<svg width="100" height="122" viewBox="0 0 100 122" fill="none" xmlns="http://www.w3.org/2000/svg">
<path d="M97.9854 16.1546L52.0543 0.924868C51.5001 0.740744 50.7567 0.648682 50.0132 0.648682C49.2698 0.648682 48.5263 0.740744 47.9721 0.924868L2.04108 16.1546C0.919163 16.5229 0 17.7854 0 18.9428V82.3869C0 83.5442 0.770475 85.0698 1.70315 85.7932L48.2966 121.119C48.7697 121.474 49.3779 121.658 49.9997 121.658C50.6215 121.658 51.2433 121.474 51.7029 121.119L98.2963 85.7932C99.229 85.083 99.9994 83.5574 99.9994 82.3869V18.9428C100.026 17.7854 99.1073 16.536 97.9854 16.1546ZM74.6819 38.6178L45.9446 77.113C45.7426 77.3821 45.4781 77.6009 45.1728 77.7518C44.8674 77.9027 44.5298 77.9813 44.1874 77.9813C43.8449 77.9813 43.5073 77.9027 43.2019 77.7518C42.8966 77.6009 42.6322 77.3821 42.4301 77.113L25.3445 54.229C24.8309 53.5319 25.3445 52.5587 26.2232 52.5587H33.6846C34.374 52.5587 35.0363 52.8875 35.4418 53.4267L44.1874 65.1318L64.5846 37.8024C64.9902 37.2632 65.639 36.9344 66.3419 36.9344H73.8033C74.6819 36.9475 75.1956 37.9208 74.6819 38.6178Z" fill="#3423F9"/>
</svg>
