<svg width="125" height="98" viewBox="0 0 125 98" fill="none" xmlns="http://www.w3.org/2000/svg">
<path d="M124.868 83.0454C123.228 79.1694 118.658 77.3263 114.674 78.9413L110.358 80.6894L102.801 61.3279C112.155 54.6777 115.455 42.2704 109.538 32.2952L92.6268 3.69949C91.0646 1.05843 87.7252 -0.0435976 84.8155 1.11543L62.4947 10.1217L40.1739 1.11543C37.2642 -0.0625981 33.9249 1.05843 32.3626 3.69949L15.4511 32.2952C9.5536 42.2704 12.8343 54.6778 22.1884 61.3089L14.6309 80.6704L10.3152 78.9223C6.33143 77.3073 1.78135 79.1504 0.121448 83.0265C-0.210532 83.8055 0.160505 84.6985 0.961164 85.0215L32.6555 97.8278C33.4562 98.1508 34.3545 97.7898 34.6865 97.0108C36.3268 93.1347 34.4521 88.6886 30.4684 87.0735L26.1526 85.3255L33.8468 65.641C34.706 65.736 35.5652 65.888 36.405 65.888C46.5011 65.888 55.816 59.5989 58.55 49.6806L62.4947 35.3543L66.4394 49.6806C69.1734 59.5989 78.4884 65.888 88.5845 65.888C89.4242 65.888 90.2834 65.736 91.1427 65.641L98.8173 85.3255L94.5015 87.0735C90.5178 88.6886 88.6235 93.1347 90.2834 97.0108C90.6154 97.7898 91.5332 98.1508 92.3144 97.8278L124.028 85.0215C124.809 84.6985 125.2 83.8245 124.868 83.0454ZM53.8827 31.4592L31.9916 22.624L39.1194 10.5777L57.5736 18.0258L53.8827 31.4592ZM71.1067 31.4592L67.4158 18.0258L85.87 10.5777L92.9978 22.624L71.1067 31.4592Z" fill="#3423F9"/>
</svg>
