<svg width="100" height="111" viewBox="0 0 100 111" fill="none" xmlns="http://www.w3.org/2000/svg">
<path d="M43.75 18.8919H56.25V61.4595H43.75V18.8919ZM31.25 104.027C31.25 105.64 30.5915 107.187 29.4194 108.327C28.2473 109.467 26.6576 110.108 25 110.108H6.25C4.5924 110.108 3.00269 109.467 1.83058 108.327C0.658481 107.187 0 105.64 0 104.027V73.6217L12.5 18.8919H37.5V61.4595C37.5 63.0723 36.8415 64.619 35.6694 65.7595C34.4973 66.8999 32.9076 67.5406 31.25 67.5406V104.027ZM37.5 12.8108H18.75V0.648682H37.5V12.8108ZM68.75 104.027V67.5406C67.0924 67.5406 65.5027 66.8999 64.3306 65.7595C63.1585 64.619 62.5 63.0723 62.5 61.4595V18.8919H87.5L100 73.6217V104.027C100 105.64 99.3415 107.187 98.1694 108.327C96.9973 109.467 95.4076 110.108 93.75 110.108H75C73.3424 110.108 71.7527 109.467 70.5806 108.327C69.4085 107.187 68.75 105.64 68.75 104.027ZM62.5 12.8108V0.648682H81.25V12.8108H62.5Z" fill="#3423F9"/>
</svg>
