<svg width="199" height="33" viewBox="0 0 199 33" fill="none" xmlns="http://www.w3.org/2000/svg">
<rect x="0.5" y="0.5" width="198" height="32" rx="14.5" fill="#2DC842" stroke="#040C15"/>
<path d="M49.014 21V12.12H55.74V13.476H50.76V21H49.014ZM50.028 17.292V15.936H55.104V17.292H50.028ZM56.6815 21V14.454H58.0795L58.2115 15.264H58.3015C58.5295 14.976 58.8215 14.756 59.1775 14.604C59.5335 14.452 59.9115 14.376 60.3115 14.376C60.4275 14.376 60.5375 14.38 60.6415 14.388C60.7495 14.396 60.8515 14.41 60.9475 14.43V15.942C60.8355 15.918 60.7155 15.904 60.5875 15.9C60.4635 15.892 60.3415 15.888 60.2215 15.888C60.0175 15.888 59.8015 15.912 59.5735 15.96C59.3455 16.008 59.1275 16.086 58.9195 16.194C58.7115 16.298 58.5335 16.432 58.3855 16.596V21H56.6815ZM65.3301 21.12C64.4701 21.12 63.7541 21 63.1821 20.76C62.6141 20.52 62.1881 20.15 61.9041 19.65C61.6201 19.15 61.4781 18.514 61.4781 17.742C61.4781 17.026 61.6061 16.416 61.8621 15.912C62.1181 15.404 62.4881 15.018 62.9721 14.754C63.4601 14.486 64.0501 14.352 64.7421 14.352C65.4141 14.352 65.9801 14.486 66.4401 14.754C66.9001 15.022 67.2481 15.414 67.4841 15.93C67.7201 16.442 67.8381 17.062 67.8381 17.79V18.21H62.2041V17.244H66.5781L66.2481 17.376C66.2481 16.928 66.1921 16.56 66.0801 16.272C65.9681 15.984 65.7981 15.77 65.5701 15.63C65.3421 15.49 65.0581 15.42 64.7181 15.42C64.3781 15.42 64.0921 15.49 63.8601 15.63C63.6281 15.766 63.4541 15.978 63.3381 16.266C63.2221 16.554 63.1641 16.922 63.1641 17.37V17.982C63.1641 18.434 63.2401 18.8 63.3921 19.08C63.5481 19.356 63.8021 19.558 64.1541 19.686C64.5101 19.814 64.9881 19.878 65.5881 19.878C65.8721 19.878 66.1721 19.858 66.4881 19.818C66.8081 19.778 67.1281 19.722 67.4481 19.65V20.874C67.0641 20.962 66.6981 21.024 66.3501 21.06C66.0021 21.1 65.6621 21.12 65.3301 21.12ZM72.7246 21.12C71.8646 21.12 71.1486 21 70.5766 20.76C70.0086 20.52 69.5826 20.15 69.2986 19.65C69.0146 19.15 68.8726 18.514 68.8726 17.742C68.8726 17.026 69.0006 16.416 69.2566 15.912C69.5126 15.404 69.8826 15.018 70.3666 14.754C70.8546 14.486 71.4446 14.352 72.1366 14.352C72.8086 14.352 73.3746 14.486 73.8346 14.754C74.2946 15.022 74.6426 15.414 74.8786 15.93C75.1146 16.442 75.2326 17.062 75.2326 17.79V18.21H69.5986V17.244H73.9726L73.6426 17.376C73.6426 16.928 73.5866 16.56 73.4746 16.272C73.3626 15.984 73.1926 15.77 72.9646 15.63C72.7366 15.49 72.4526 15.42 72.1126 15.42C71.7726 15.42 71.4866 15.49 71.2546 15.63C71.0226 15.766 70.8486 15.978 70.7326 16.266C70.6166 16.554 70.5586 16.922 70.5586 17.37V17.982C70.5586 18.434 70.6346 18.8 70.7866 19.08C70.9426 19.356 71.1966 19.558 71.5486 19.686C71.9046 19.814 72.3826 19.878 72.9826 19.878C73.2666 19.878 73.5666 19.858 73.8826 19.818C74.2026 19.778 74.5226 19.722 74.8426 19.65V20.874C74.4586 20.962 74.0926 21.024 73.7446 21.06C73.3966 21.1 73.0566 21.12 72.7246 21.12ZM84.7893 21.114C83.9973 21.114 83.2893 21.026 82.6653 20.85C82.0453 20.67 81.5193 20.396 81.0873 20.028C80.6553 19.66 80.3273 19.19 80.1033 18.618C79.8793 18.046 79.7673 17.366 79.7673 16.578C79.7673 15.586 79.9653 14.75 80.3613 14.07C80.7573 13.39 81.3353 12.876 82.0953 12.528C82.8553 12.18 83.7813 12.006 84.8733 12.006C85.2733 12.006 85.6513 12.026 86.0073 12.066C86.3633 12.106 86.7173 12.17 87.0693 12.258V13.674C86.7453 13.594 86.4113 13.534 86.0673 13.494C85.7233 13.45 85.3673 13.428 84.9993 13.428C84.2393 13.428 83.6073 13.54 83.1033 13.764C82.5993 13.984 82.2213 14.326 81.9693 14.79C81.7173 15.25 81.5913 15.838 81.5913 16.554C81.5913 17.298 81.7173 17.9 81.9693 18.36C82.2213 18.82 82.5933 19.158 83.0853 19.374C83.5773 19.586 84.1793 19.692 84.8913 19.692C85.2753 19.692 85.6433 19.668 85.9953 19.62C86.3513 19.568 86.7093 19.49 87.0693 19.386V20.802C86.7253 20.906 86.3613 20.984 85.9773 21.036C85.5973 21.088 85.2013 21.114 84.7893 21.114ZM91.2021 21.12C90.5061 21.12 89.8981 20.994 89.3781 20.742C88.8581 20.486 88.4521 20.106 88.1601 19.602C87.8721 19.098 87.7281 18.474 87.7281 17.73C87.7281 16.99 87.8681 16.37 88.1481 15.87C88.4281 15.366 88.8281 14.988 89.3481 14.736C89.8681 14.48 90.4861 14.352 91.2021 14.352C91.9221 14.352 92.5401 14.478 93.0561 14.73C93.5761 14.982 93.9761 15.358 94.2561 15.858C94.5361 16.358 94.6761 16.982 94.6761 17.73C94.6761 18.466 94.5301 19.086 94.2381 19.59C93.9501 20.094 93.5441 20.476 93.0201 20.736C92.5001 20.992 91.8941 21.12 91.2021 21.12ZM91.2021 19.8C91.5701 19.8 91.8861 19.73 92.1501 19.59C92.4181 19.45 92.6221 19.228 92.7621 18.924C92.9061 18.62 92.9781 18.222 92.9781 17.73C92.9781 17.238 92.9061 16.842 92.7621 16.542C92.6221 16.238 92.4181 16.018 92.1501 15.882C91.8861 15.742 91.5701 15.672 91.2021 15.672C90.8301 15.672 90.5101 15.742 90.2421 15.882C89.9781 16.018 89.7761 16.236 89.6361 16.536C89.4961 16.836 89.4261 17.232 89.4261 17.724C89.4261 18.216 89.4961 18.616 89.6361 18.924C89.7761 19.228 89.9781 19.45 90.2421 19.59C90.5101 19.73 90.8301 19.8 91.2021 19.8ZM98.938 21.108C98.37 21.108 97.856 20.996 97.396 20.772C96.936 20.548 96.57 20.198 96.298 19.722C96.03 19.242 95.896 18.624 95.896 17.868C95.896 17.104 96.044 16.46 96.34 15.936C96.64 15.412 97.07 15.016 97.63 14.748C98.194 14.476 98.878 14.34 99.682 14.34C99.906 14.34 100.126 14.35 100.342 14.37C100.562 14.386 100.762 14.408 100.942 14.436V11.304H102.646V21H101.218L101.122 20.292H101.032C100.784 20.54 100.482 20.738 100.126 20.886C99.774 21.034 99.378 21.108 98.938 21.108ZM99.376 19.734C99.656 19.734 99.934 19.686 100.21 19.59C100.486 19.49 100.73 19.324 100.942 19.092V15.762C100.782 15.726 100.602 15.696 100.402 15.672C100.202 15.648 99.994 15.636 99.778 15.636C99.042 15.636 98.494 15.81 98.134 16.158C97.774 16.502 97.594 17.032 97.594 17.748C97.594 18.228 97.668 18.614 97.816 18.906C97.964 19.198 98.17 19.41 98.434 19.542C98.702 19.67 99.016 19.734 99.376 19.734ZM107.975 21.12C107.115 21.12 106.399 21 105.827 20.76C105.259 20.52 104.833 20.15 104.549 19.65C104.265 19.15 104.123 18.514 104.123 17.742C104.123 17.026 104.251 16.416 104.507 15.912C104.763 15.404 105.133 15.018 105.617 14.754C106.105 14.486 106.695 14.352 107.387 14.352C108.059 14.352 108.625 14.486 109.085 14.754C109.545 15.022 109.893 15.414 110.129 15.93C110.365 16.442 110.483 17.062 110.483 17.79V18.21H104.849V17.244H109.223L108.893 17.376C108.893 16.928 108.837 16.56 108.725 16.272C108.613 15.984 108.443 15.77 108.215 15.63C107.987 15.49 107.703 15.42 107.363 15.42C107.023 15.42 106.737 15.49 106.505 15.63C106.273 15.766 106.099 15.978 105.983 16.266C105.867 16.554 105.809 16.922 105.809 17.37V17.982C105.809 18.434 105.885 18.8 106.037 19.08C106.193 19.356 106.447 19.558 106.799 19.686C107.155 19.814 107.633 19.878 108.233 19.878C108.517 19.878 108.817 19.858 109.133 19.818C109.453 19.778 109.773 19.722 110.093 19.65V20.874C109.709 20.962 109.343 21.024 108.995 21.06C108.647 21.1 108.307 21.12 107.975 21.12ZM120.039 21.114C119.247 21.114 118.539 21.026 117.915 20.85C117.295 20.67 116.769 20.396 116.337 20.028C115.905 19.66 115.577 19.19 115.353 18.618C115.129 18.046 115.017 17.366 115.017 16.578C115.017 15.586 115.215 14.75 115.611 14.07C116.007 13.39 116.585 12.876 117.345 12.528C118.105 12.18 119.031 12.006 120.123 12.006C120.523 12.006 120.901 12.026 121.257 12.066C121.613 12.106 121.967 12.17 122.319 12.258V13.674C121.995 13.594 121.661 13.534 121.317 13.494C120.973 13.45 120.617 13.428 120.249 13.428C119.489 13.428 118.857 13.54 118.353 13.764C117.849 13.984 117.471 14.326 117.219 14.79C116.967 15.25 116.841 15.838 116.841 16.554C116.841 17.298 116.967 17.9 117.219 18.36C117.471 18.82 117.843 19.158 118.335 19.374C118.827 19.586 119.429 19.692 120.141 19.692C120.525 19.692 120.893 19.668 121.245 19.62C121.601 19.568 121.959 19.49 122.319 19.386V20.802C121.975 20.906 121.611 20.984 121.227 21.036C120.847 21.088 120.451 21.114 120.039 21.114ZM125.523 21.114C124.759 21.114 124.177 20.94 123.777 20.592C123.381 20.244 123.183 19.796 123.183 19.248C123.183 18.656 123.409 18.194 123.861 17.862C124.317 17.526 125.049 17.322 126.057 17.25L127.893 17.082L128.025 18.024L126.201 18.186C125.717 18.234 125.375 18.334 125.175 18.486C124.979 18.638 124.881 18.846 124.881 19.11C124.881 19.374 124.973 19.584 125.157 19.74C125.345 19.896 125.633 19.974 126.021 19.974C126.289 19.974 126.553 19.93 126.813 19.842C127.077 19.75 127.315 19.61 127.527 19.422V16.986C127.527 16.63 127.465 16.352 127.341 16.152C127.217 15.952 127.023 15.812 126.759 15.732C126.495 15.648 126.153 15.606 125.733 15.606C125.453 15.606 125.133 15.63 124.773 15.678C124.413 15.722 124.063 15.798 123.723 15.906V14.67C124.075 14.562 124.455 14.482 124.863 14.43C125.271 14.378 125.651 14.352 126.003 14.352C126.731 14.352 127.331 14.438 127.803 14.61C128.275 14.778 128.625 15.062 128.853 15.462C129.085 15.862 129.201 16.41 129.201 17.106V21H127.779L127.665 20.34H127.581C127.341 20.592 127.041 20.784 126.681 20.916C126.321 21.048 125.935 21.114 125.523 21.114ZM130.955 21V14.454H132.359L132.467 15.132H132.551C132.811 14.88 133.117 14.688 133.469 14.556C133.821 14.42 134.203 14.352 134.615 14.352C135.063 14.352 135.459 14.444 135.803 14.628C136.147 14.812 136.417 15.104 136.613 15.504C136.809 15.9 136.907 16.418 136.907 17.058V21H135.233V17.172C135.233 16.652 135.135 16.292 134.939 16.092C134.743 15.888 134.471 15.786 134.123 15.786C133.939 15.786 133.759 15.812 133.583 15.864C133.407 15.916 133.239 15.994 133.079 16.098C132.923 16.202 132.783 16.332 132.659 16.488V21H130.955ZM139.409 21V17.172C139.409 16.652 139.303 16.292 139.091 16.092C138.883 15.888 138.605 15.786 138.257 15.786C138.061 15.786 137.869 15.814 137.681 15.87C137.493 15.922 137.315 16.008 137.147 16.128C136.983 16.244 136.839 16.398 136.715 16.59L136.325 15.384C136.693 15 137.083 14.732 137.495 14.58C137.911 14.428 138.317 14.352 138.713 14.352C139.185 14.352 139.601 14.444 139.961 14.628C140.321 14.812 140.601 15.106 140.801 15.51C141.005 15.91 141.107 16.434 141.107 17.082V21H139.409ZM142.861 23.64V14.454H144.289L144.391 15.168H144.475C144.723 14.916 145.025 14.718 145.381 14.574C145.737 14.426 146.133 14.352 146.569 14.352C147.129 14.352 147.639 14.462 148.099 14.682C148.559 14.898 148.925 15.244 149.197 15.72C149.473 16.196 149.611 16.82 149.611 17.592C149.611 18.356 149.463 19 149.167 19.524C148.871 20.048 148.441 20.446 147.877 20.718C147.313 20.986 146.629 21.12 145.825 21.12C145.601 21.12 145.381 21.11 145.165 21.09C144.949 21.074 144.749 21.054 144.565 21.03V23.64H142.861ZM145.729 19.824C146.469 19.824 147.017 19.652 147.373 19.308C147.733 18.96 147.913 18.428 147.913 17.712C147.913 17.224 147.837 16.836 147.685 16.548C147.537 16.256 147.329 16.046 147.061 15.918C146.793 15.79 146.483 15.726 146.131 15.726C145.851 15.726 145.573 15.774 145.297 15.87C145.021 15.966 144.777 16.132 144.565 16.368V19.698C144.725 19.734 144.905 19.764 145.105 19.788C145.309 19.812 145.517 19.824 145.729 19.824Z" fill="black"/>
</svg>
