<svg width="40" height="41" viewBox="0 0 40 41" fill="none" xmlns="http://www.w3.org/2000/svg">
<path d="M27.1426 12.2605C25.973 5.05747 23.2144 0 20.004 0C16.7937 0 14.0351 5.05747 12.8655 12.2605H27.1426ZM12.2605 20.004C12.2605 21.7947 12.3573 23.5128 12.5267 25.1664H27.4733C27.6427 23.5128 27.7395 21.7947 27.7395 20.004C27.7395 18.2133 27.6427 16.4953 27.4733 14.8417H12.5267C12.3573 16.4953 12.2605 18.2133 12.2605 20.004ZM38.4513 12.2605C36.1444 6.78363 31.4741 2.5489 25.7068 0.838879C27.6749 3.56523 29.03 7.6709 29.7399 12.2605H38.4513ZM14.2932 0.838879C8.53398 2.5489 3.85562 6.78363 1.55677 12.2605H10.2682C10.97 7.6709 12.3251 3.56523 14.2932 0.838879ZM39.3144 14.8417H30.0625C30.2319 16.5356 30.3287 18.2698 30.3287 20.004C30.3287 21.7383 30.2319 23.4725 30.0625 25.1664H39.3063C39.7499 23.5128 40 21.7947 40 20.004C40 18.2133 39.7499 16.4953 39.3144 14.8417ZM9.67937 20.004C9.67937 18.2698 9.77616 16.5356 9.94555 14.8417H0.693688C0.258117 16.4953 0 18.2133 0 20.004C0 21.7947 0.258117 23.5128 0.693688 25.1664H9.93749C9.77616 23.4725 9.67937 21.7383 9.67937 20.004V20.004ZM12.8655 27.7475C14.0351 34.9506 16.7937 40.0081 20.004 40.0081C23.2144 40.0081 25.973 34.9506 27.1426 27.7475H12.8655ZM25.7149 39.1692C31.4741 37.4592 36.1524 33.2244 38.4594 27.7475H29.7479C29.0381 32.3372 27.683 36.4428 25.7149 39.1692ZM1.55677 27.7475C3.86368 33.2244 8.53398 37.4592 14.3013 39.1692C12.3331 36.4428 10.978 32.3372 10.2682 27.7475H1.55677Z" fill="#EAF2FB"/>
</svg>
