<svg width="199" height="33" viewBox="0 0 199 33" fill="none" xmlns="http://www.w3.org/2000/svg">
<rect x="0.5" y="0.5" width="198" height="32" rx="14.5" fill="#F4D06F" stroke="#040C15"/>
<path d="M49.33 21V13.506H46.126V12.12H54.28V13.506H51.076V21H49.33ZM55.2323 21V11.304H56.9363V15.114H57.0203C57.3083 14.862 57.6383 14.672 58.0103 14.544C58.3823 14.416 58.7703 14.352 59.1743 14.352C59.6543 14.352 60.0803 14.444 60.4523 14.628C60.8283 14.812 61.1223 15.106 61.3343 15.51C61.5503 15.91 61.6583 16.434 61.6583 17.082V21H59.9543V17.172C59.9543 16.652 59.8363 16.292 59.6003 16.092C59.3683 15.892 59.0483 15.792 58.6403 15.792C58.4363 15.792 58.2303 15.818 58.0223 15.87C57.8183 15.918 57.6223 15.994 57.4343 16.098C57.2503 16.198 57.0843 16.324 56.9363 16.476V21H55.2323ZM66.916 21.12C66.056 21.12 65.34 21 64.768 20.76C64.2 20.52 63.774 20.15 63.49 19.65C63.206 19.15 63.064 18.514 63.064 17.742C63.064 17.026 63.192 16.416 63.448 15.912C63.704 15.404 64.074 15.018 64.558 14.754C65.046 14.486 65.636 14.352 66.328 14.352C67 14.352 67.566 14.486 68.026 14.754C68.486 15.022 68.834 15.414 69.07 15.93C69.306 16.442 69.424 17.062 69.424 17.79V18.21H63.79V17.244H68.164L67.834 17.376C67.834 16.928 67.778 16.56 67.666 16.272C67.554 15.984 67.384 15.77 67.156 15.63C66.928 15.49 66.644 15.42 66.304 15.42C65.964 15.42 65.678 15.49 65.446 15.63C65.214 15.766 65.04 15.978 64.924 16.266C64.808 16.554 64.75 16.922 64.75 17.37V17.982C64.75 18.434 64.826 18.8 64.978 19.08C65.134 19.356 65.388 19.558 65.74 19.686C66.096 19.814 66.574 19.878 67.174 19.878C67.458 19.878 67.758 19.858 68.074 19.818C68.394 19.778 68.714 19.722 69.034 19.65V20.874C68.65 20.962 68.284 21.024 67.936 21.06C67.588 21.1 67.248 21.12 66.916 21.12ZM78.5427 21.114C77.6147 21.114 76.8067 20.942 76.1187 20.598C75.4347 20.254 74.9027 19.744 74.5227 19.068C74.1467 18.392 73.9587 17.556 73.9587 16.56C73.9587 15.564 74.1467 14.728 74.5227 14.052C74.9027 13.376 75.4367 12.866 76.1247 12.522C76.8127 12.178 77.6187 12.006 78.5427 12.006C79.4747 12.006 80.2847 12.18 80.9727 12.528C81.6607 12.872 82.1927 13.382 82.5687 14.058C82.9447 14.734 83.1327 15.568 83.1327 16.56C83.1327 17.552 82.9427 18.386 82.5627 19.062C82.1867 19.738 81.6527 20.25 80.9607 20.598C80.2727 20.942 79.4667 21.114 78.5427 21.114ZM78.5427 19.722C79.1227 19.722 79.6227 19.612 80.0427 19.392C80.4627 19.172 80.7847 18.832 81.0087 18.372C81.2367 17.908 81.3507 17.316 81.3507 16.596C81.3507 15.856 81.2347 15.25 81.0027 14.778C80.7747 14.306 80.4507 13.958 80.0307 13.734C79.6107 13.51 79.1147 13.398 78.5427 13.398C77.9747 13.398 77.4787 13.508 77.0547 13.728C76.6347 13.944 76.3087 14.284 76.0767 14.748C75.8487 15.208 75.7347 15.8 75.7347 16.524C75.7347 17.272 75.8487 17.882 76.0767 18.354C76.3047 18.826 76.6287 19.172 77.0487 19.392C77.4687 19.612 77.9667 19.722 78.5427 19.722ZM87.3873 21.108C86.8193 21.108 86.3053 20.996 85.8453 20.772C85.3853 20.548 85.0193 20.198 84.7473 19.722C84.4793 19.242 84.3453 18.624 84.3453 17.868C84.3453 17.104 84.4933 16.46 84.7893 15.936C85.0893 15.412 85.5193 15.016 86.0793 14.748C86.6433 14.476 87.3273 14.34 88.1313 14.34C88.3553 14.34 88.5753 14.35 88.7913 14.37C89.0113 14.386 89.2113 14.408 89.3913 14.436V11.304H91.0953V21H89.6673L89.5713 20.292H89.4813C89.2333 20.54 88.9313 20.738 88.5753 20.886C88.2233 21.034 87.8273 21.108 87.3873 21.108ZM87.8253 19.734C88.1053 19.734 88.3833 19.686 88.6593 19.59C88.9353 19.49 89.1793 19.324 89.3913 19.092V15.762C89.2313 15.726 89.0513 15.696 88.8513 15.672C88.6513 15.648 88.4433 15.636 88.2273 15.636C87.4913 15.636 86.9433 15.81 86.5833 16.158C86.2233 16.502 86.0433 17.032 86.0433 17.748C86.0433 18.228 86.1173 18.614 86.2653 18.906C86.4133 19.198 86.6193 19.41 86.8833 19.542C87.1513 19.67 87.4653 19.734 87.8253 19.734ZM92.9198 21V14.454H94.6238V21H92.9198ZM93.7718 13.344C93.4118 13.344 93.1438 13.27 92.9678 13.122C92.7918 12.97 92.7038 12.756 92.7038 12.48C92.7038 12.2 92.7918 11.986 92.9678 11.838C93.1438 11.686 93.4118 11.61 93.7718 11.61C94.1318 11.61 94.3998 11.686 94.5758 11.838C94.7518 11.986 94.8398 12.2 94.8398 12.48C94.8398 12.756 94.7518 12.97 94.5758 13.122C94.3998 13.27 94.1318 13.344 93.7718 13.344ZM96.4589 21V14.454H97.8629L97.9709 15.132H98.0549C98.3509 14.88 98.6949 14.688 99.0869 14.556C99.4789 14.42 99.8909 14.352 100.323 14.352C100.827 14.352 101.271 14.446 101.655 14.634C102.043 14.818 102.345 15.112 102.561 15.516C102.777 15.92 102.885 16.448 102.885 17.1V21H101.181V17.178C101.181 16.662 101.065 16.302 100.833 16.098C100.605 15.89 100.285 15.786 99.8729 15.786C99.6729 15.786 99.4709 15.812 99.2669 15.864C99.0629 15.912 98.8649 15.986 98.6729 16.086C98.4849 16.186 98.3149 16.314 98.1629 16.47V21H96.4589ZM108.151 21V12.288C108.611 12.2 109.071 12.134 109.531 12.09C109.991 12.042 110.485 12.018 111.013 12.018C112.389 12.018 113.427 12.268 114.127 12.768C114.827 13.268 115.177 14.064 115.177 15.156C115.177 16.188 114.839 16.974 114.163 17.514C113.487 18.05 112.447 18.318 111.043 18.318C110.843 18.318 110.651 18.314 110.467 18.306C110.283 18.298 110.093 18.284 109.897 18.264V21H108.151ZM111.055 17.07C111.915 17.07 112.533 16.918 112.909 16.614C113.289 16.306 113.479 15.822 113.479 15.162C113.479 14.498 113.289 14.016 112.909 13.716C112.529 13.416 111.947 13.266 111.163 13.266C110.915 13.266 110.689 13.274 110.485 13.29C110.285 13.306 110.089 13.332 109.897 13.368V16.998C110.089 17.022 110.275 17.04 110.455 17.052C110.635 17.064 110.835 17.07 111.055 17.07ZM116.639 21V14.454H118.037L118.169 15.264H118.259C118.487 14.976 118.779 14.756 119.135 14.604C119.491 14.452 119.869 14.376 120.269 14.376C120.385 14.376 120.495 14.38 120.599 14.388C120.707 14.396 120.809 14.41 120.905 14.43V15.942C120.793 15.918 120.673 15.904 120.545 15.9C120.421 15.892 120.299 15.888 120.179 15.888C119.975 15.888 119.759 15.912 119.531 15.96C119.303 16.008 119.085 16.086 118.877 16.194C118.669 16.298 118.491 16.432 118.343 16.596V21H116.639ZM124.909 21.12C124.213 21.12 123.605 20.994 123.085 20.742C122.565 20.486 122.159 20.106 121.867 19.602C121.579 19.098 121.435 18.474 121.435 17.73C121.435 16.99 121.575 16.37 121.855 15.87C122.135 15.366 122.535 14.988 123.055 14.736C123.575 14.48 124.193 14.352 124.909 14.352C125.629 14.352 126.247 14.478 126.763 14.73C127.283 14.982 127.683 15.358 127.963 15.858C128.243 16.358 128.383 16.982 128.383 17.73C128.383 18.466 128.237 19.086 127.945 19.59C127.657 20.094 127.251 20.476 126.727 20.736C126.207 20.992 125.601 21.12 124.909 21.12ZM124.909 19.8C125.277 19.8 125.593 19.73 125.857 19.59C126.125 19.45 126.329 19.228 126.469 18.924C126.613 18.62 126.685 18.222 126.685 17.73C126.685 17.238 126.613 16.842 126.469 16.542C126.329 16.238 126.125 16.018 125.857 15.882C125.593 15.742 125.277 15.672 124.909 15.672C124.537 15.672 124.217 15.742 123.949 15.882C123.685 16.018 123.483 16.236 123.343 16.536C123.203 16.836 123.133 17.232 123.133 17.724C123.133 18.216 123.203 18.616 123.343 18.924C123.483 19.228 123.685 19.45 123.949 19.59C124.217 19.73 124.537 19.8 124.909 19.8ZM129.875 23.814L128.801 23.088C129.057 22.784 129.261 22.474 129.413 22.158C129.569 21.842 129.681 21.504 129.749 21.144C129.821 20.788 129.857 20.392 129.857 19.956V14.454H131.561V19.896C131.561 20.392 131.505 20.86 131.393 21.3C131.285 21.74 131.107 22.166 130.859 22.578C130.611 22.99 130.283 23.402 129.875 23.814ZM130.679 13.314C130.319 13.314 130.051 13.24 129.875 13.092C129.699 12.94 129.611 12.726 129.611 12.45C129.611 12.17 129.699 11.956 129.875 11.808C130.051 11.656 130.319 11.58 130.679 11.58C131.039 11.58 131.307 11.656 131.483 11.808C131.659 11.956 131.747 12.17 131.747 12.45C131.747 12.726 131.659 12.94 131.483 13.092C131.307 13.24 131.039 13.314 130.679 13.314ZM136.9 21.12C136.04 21.12 135.324 21 134.752 20.76C134.184 20.52 133.758 20.15 133.474 19.65C133.19 19.15 133.048 18.514 133.048 17.742C133.048 17.026 133.176 16.416 133.432 15.912C133.688 15.404 134.058 15.018 134.542 14.754C135.03 14.486 135.62 14.352 136.312 14.352C136.984 14.352 137.55 14.486 138.01 14.754C138.47 15.022 138.818 15.414 139.054 15.93C139.29 16.442 139.408 17.062 139.408 17.79V18.21H133.774V17.244H138.148L137.818 17.376C137.818 16.928 137.762 16.56 137.65 16.272C137.538 15.984 137.368 15.77 137.14 15.63C136.912 15.49 136.628 15.42 136.288 15.42C135.948 15.42 135.662 15.49 135.43 15.63C135.198 15.766 135.024 15.978 134.908 16.266C134.792 16.554 134.734 16.922 134.734 17.37V17.982C134.734 18.434 134.81 18.8 134.962 19.08C135.118 19.356 135.372 19.558 135.724 19.686C136.08 19.814 136.558 19.878 137.158 19.878C137.442 19.878 137.742 19.858 138.058 19.818C138.378 19.778 138.698 19.722 139.018 19.65V20.874C138.634 20.962 138.268 21.024 137.92 21.06C137.572 21.1 137.232 21.12 136.9 21.12ZM144.127 21.12C143.335 21.12 142.665 20.994 142.117 20.742C141.569 20.486 141.153 20.108 140.869 19.608C140.585 19.104 140.443 18.482 140.443 17.742C140.443 17.002 140.591 16.38 140.887 15.876C141.183 15.372 141.617 14.992 142.189 14.736C142.765 14.48 143.473 14.352 144.313 14.352C144.625 14.352 144.925 14.368 145.213 14.4C145.501 14.432 145.769 14.482 146.017 14.55V15.87C145.753 15.814 145.497 15.772 145.249 15.744C145.005 15.712 144.745 15.696 144.469 15.696C143.949 15.696 143.519 15.77 143.179 15.918C142.843 16.062 142.593 16.284 142.429 16.584C142.265 16.884 142.183 17.266 142.183 17.73C142.183 18.198 142.263 18.584 142.423 18.888C142.587 19.188 142.825 19.412 143.137 19.56C143.453 19.704 143.841 19.776 144.301 19.776C144.565 19.776 144.827 19.756 145.087 19.716C145.351 19.672 145.661 19.604 146.017 19.512V20.838C145.753 20.926 145.459 20.994 145.135 21.042C144.815 21.094 144.479 21.12 144.127 21.12ZM150.502 21.12C149.67 21.12 149.032 20.92 148.588 20.52C148.144 20.116 147.922 19.502 147.922 18.678V14.454L148.222 12.12H149.626V18.36C149.626 18.876 149.736 19.238 149.956 19.446C150.18 19.65 150.516 19.752 150.964 19.752C151.092 19.752 151.22 19.744 151.348 19.728C151.48 19.712 151.63 19.686 151.798 19.65V20.976C151.598 21.02 151.386 21.054 151.162 21.078C150.942 21.106 150.722 21.12 150.502 21.12ZM146.674 15.81V14.454H151.732V15.81H146.674Z" fill="black"/>
</svg>
